<?xml version="1.0" encoding="utf-8"?>
<!-- Generator: Adobe Illustrator 24.0.2, SVG Export Plug-In . SVG Version: 6.00 Build 0)  -->
<svg version="1.1" id="Capa_1" xmlns="http://www.w3.org/2000/svg" xmlns:xlink="http://www.w3.org/1999/xlink" x="0px" y="0px"
	 viewBox="0 0 339 49" fill="none" style="enable-background:new 0 0 339 49;" xml:space="preserve">
<style type="text/css">
	.st0{fill:#27357D;}
	.st1{fill:#FFCE05;}
	.st2{fill:#FFFFFF;}
</style>
<path fill="none" class="st0" d="M204.9,23.2c0-12.8-15.8-23.2-35.4-23.2c-19.5,0-35.4,10.4-35.4,23.2c0,0.3,0,1.2,0,1.4
	C134.1,38,148,49,169.5,49c21.7,0,35.4-11,35.4-24.5V23.2z"/>
<path fill="none" class="st1" d="M203.5,23.1c0,12-15.2,21.8-34,21.8s-34-9.7-34-21.8s15.2-21.8,34-21.8S203.5,11.1,203.5,23.1"/>
<path fill="none" class="st2" d="M158.2,16.3c0,0-0.4,0.4-0.1,0.7c0.5,0.7,2.2,1.1,3.9,0.7c1-0.2,2.3-1.2,3.5-2.2c1.3-1.1,2.7-2.1,4-2.6
	c1.4-0.5,2.3-0.3,2.9-0.1c0.7,0.2,1.4,0.6,2.7,1.6c2.3,1.8,11.7,9.9,13.3,11.3c1.3-0.6,7.1-3.1,15-4.8c-0.7-4.2-3.2-8-7.1-11.2
	c-5.4,2.3-12,3.4-18.4,0.3c0,0-3.5-1.7-7-1.6c-5.1,0.1-7.3,2.3-9.7,4.7L158.2,16.3z"/>
<path fill="none" class="st2" d="M188,26.6c-0.1-0.1-11-9.6-13.5-11.5c-1.4-1.1-2.2-1.3-3.1-1.5c-0.4-0.1-1,0-1.5,0.1c-1.1,0.3-2.7,1.3-4,2.4
	c-1.4,1.1-2.7,2.1-3.9,2.4c-1.5,0.3-3.4-0.1-4.3-0.6c-0.4-0.2-0.6-0.5-0.7-0.8c-0.3-0.7,0.3-1.3,0.4-1.4l3-3.2
	c0.4-0.4,0.7-0.7,1.1-1c-1,0.1-1.9,0.4-2.7,0.6c-1.1,0.3-2.1,0.6-3.2,0.6c-0.4,0-2.8-0.4-3.3-0.5c-2.7-0.7-5.1-1.5-8.7-3.1
	c-4.3,3.2-7.1,7.2-8,11.5c0.6,0.2,1.6,0.5,2,0.6c9.7,2.1,12.7,4.4,13.2,4.8c0.6-0.7,1.4-1.1,2.4-1.1c1.1,0,2,0.5,2.6,1.4
	c0.6-0.4,1.3-0.8,2.3-0.8c0.5,0,0.9,0.1,1.4,0.2c1.1,0.4,1.7,1.1,1.9,1.8c0.4-0.2,0.8-0.3,1.3-0.3s1.1,0.1,1.6,0.4
	c1.8,0.8,2.1,2.5,1.9,3.8c0.1,0,0.3,0,0.4,0c2.1,0,3.8,1.7,3.8,3.8c0,0.7-0.2,1.3-0.5,1.8c0.6,0.3,2,1.1,3.3,0.9
	c1-0.1,1.4-0.5,1.6-0.7c0.1-0.1,0.2-0.3,0.1-0.4l-2.7-3c0,0-0.5-0.4-0.3-0.6c0.2-0.2,0.4,0.1,0.6,0.2c1.4,1.2,3.1,2.9,3.1,2.9
	s0.1,0.2,0.8,0.4c0.5,0.1,1.5,0,2.2-0.5c0.2-0.1,0.3-0.3,0.5-0.5l0,0c0.7-0.9-0.1-1.8-0.1-1.8l-3.2-3.6c0,0-0.5-0.4-0.3-0.6
	c0.1-0.1,0.4,0.1,0.6,0.2c1,0.8,2.4,2.3,3.8,3.6c0.3,0.2,1.5,0.9,3.1-0.1c1-0.6,1.2-1.4,1.1-2c-0.1-0.8-0.7-1.3-0.7-1.3l-4.4-4.4
	c0,0-0.5-0.4-0.3-0.6c0.1-0.2,0.4,0.1,0.6,0.2c1.4,1.2,5.1,4.6,5.1,4.6c0.1,0,1.4,1,3-0.1c0.6-0.4,0.9-0.9,1-1.6
	C188.8,27.2,188,26.6,188,26.6"/>
<path class="st2" d="M166.9,32.1c-0.7,0-1.4,0.4-1.5,0.3c-0.1,0,0-0.3,0.1-0.5c0.1-0.2,1-2.8-1.2-3.8c-1.7-0.7-2.7,0.1-3,0.5
	c-0.1,0.1-0.1,0.1-0.1,0c0-0.5-0.3-1.8-1.7-2.2c-2-0.6-3.4,0.8-3.7,1.3c-0.2-1.2-1.1-2.1-2.3-2.1c-1.3,0-2.4,1.1-2.4,2.4
	s1.1,2.4,2.4,2.4c0.6,0,1.2-0.3,1.6-0.7c0,0,0,0,0,0.1c-0.1,0.6-0.3,2.7,1.9,3.6c0.9,0.4,1.7,0.1,2.3-0.4c0.2-0.1,0.2-0.1,0.2,0.1
	c-0.1,0.6,0,1.7,1.7,2.4c1.3,0.5,2,0,2.5-0.5c0.2-0.2,0.3-0.2,0.3,0.1c0.1,1.6,1.4,2.9,3,2.9c1.7,0,3-1.3,3-3
	C169.9,33.4,168.5,32.1,166.9,32.1"/>
<path class="st0" d="M188.4,25.4c-3.4-2.9-11.1-9.7-13.2-11.3c-1.2-0.9-2-1.4-2.7-1.6c-0.3-0.1-0.8-0.2-1.3-0.2s-1.1,0.1-1.7,0.3
	c-1.4,0.4-2.7,1.5-4,2.5l-0.1,0.1c-1.2,1-2.5,2-3.4,2.2c-0.4,0.1-0.8,0.1-1.3,0.1c-1.1,0-2-0.3-2.4-0.8c-0.1-0.1,0-0.2,0.1-0.4l0,0
	l3-3.2c2.3-2.3,4.5-4.5,9.5-4.6c0.1,0,0.2,0,0.3,0c3.1,0,6.3,1.4,6.6,1.6c2.9,1.4,6,2.2,9,2.2c3.2,0,6.5-0.8,9.9-2.4
	c-0.4-0.3-0.8-0.6-1.2-0.9c-3,1.3-5.9,2-8.7,2c-2.8,0-5.7-0.7-8.4-2c-0.2-0.1-3.6-1.7-7.2-1.7c-0.1,0-0.2,0-0.3,0
	c-4.2,0.1-6.6,1.6-8.2,2.9c-1.6,0-2.9,0.4-4.1,0.7c-1.1,0.3-2,0.6-2.9,0.6c-0.4,0-1,0-1.1,0c-1,0-6.2-1.3-10.4-2.9
	c-0.4,0.3-0.8,0.6-1.2,0.9c4.3,1.8,9.6,3.1,11.2,3.2c0.5,0,1,0.1,1.4,0.1c1.1,0,2.2-0.3,3.3-0.6c0.6-0.2,1.3-0.4,2-0.5
	c-0.2,0.2-0.4,0.4-0.6,0.6l-3,3.2c-0.2,0.2-0.7,0.9-0.4,1.7c0.1,0.3,0.4,0.6,0.8,0.9c0.7,0.5,2,0.8,3.2,0.8c0.5,0,0.9,0,1.3-0.1
	c1.3-0.3,2.6-1.3,4-2.4c1.1-0.9,2.7-2,3.9-2.3c0.3-0.1,0.8-0.2,1.1-0.2c0.1,0,0.2,0,0.3,0c0.8,0.1,1.6,0.4,3,1.4
	c2.5,1.9,13.4,11.4,13.5,11.5c0,0,0.7,0.6,0.6,1.6c0,0.6-0.3,1-0.9,1.4c-0.5,0.3-0.9,0.4-1.4,0.4c-0.7,0-1.2-0.3-1.3-0.4
	c0,0-3.8-3.5-5.1-4.6c-0.2-0.2-0.4-0.3-0.6-0.3c-0.1,0-0.2,0-0.3,0.1c-0.2,0.3,0,0.6,0.3,0.9l4.4,4.4c0,0,0.5,0.5,0.6,1.2
	c0,0.7-0.3,1.3-1,1.8c-0.5,0.3-1,0.5-1.5,0.5c-0.7,0-1.1-0.3-1.2-0.4l-0.6-0.6c-1.1-1.1-2.3-2.3-3.2-3c-0.2-0.2-0.4-0.3-0.6-0.3
	c-0.1,0-0.2,0-0.3,0.1c-0.1,0.1-0.2,0.3,0.1,0.6c0.1,0.1,0.2,0.2,0.2,0.2l3.2,3.6c0,0,0.7,0.8,0.1,1.5l-0.1,0.1
	c-0.1,0.1-0.2,0.2-0.3,0.3c-0.5,0.4-1.3,0.5-1.6,0.5c-0.2,0-0.3,0-0.4,0c-0.3-0.1-0.5-0.1-0.6-0.3l0,0c-0.2-0.2-1.8-1.8-3.1-2.9
	c-0.2-0.1-0.4-0.3-0.6-0.3c-0.1,0-0.2,0-0.3,0.1c-0.3,0.3,0.1,0.7,0.3,0.9l2.7,3c0,0,0,0.1-0.1,0.2c-0.1,0.1-0.4,0.5-1.4,0.6
	c-0.1,0-0.2,0-0.4,0c-1,0-2.1-0.5-2.7-0.8c0.3-0.5,0.4-1.1,0.4-1.7c0-2.2-1.8-4.1-4.1-4.1h-0.1c0.1-1-0.1-3-2.1-3.8
	c-0.6-0.2-1.1-0.4-1.7-0.4c-0.4,0-0.8,0.1-1.2,0.2c-0.4-0.8-1.1-1.4-2-1.7c-0.5-0.2-1-0.3-1.5-0.3c-0.8,0-1.6,0.2-2.3,0.7
	c-0.6-0.8-1.6-1.3-2.7-1.3c-0.9,0-1.8,0.4-2.4,1c-1.1-0.5-4.4-2.7-13.4-4.7c-0.4-0.1-1.4-0.4-2-0.6c-0.1,0.5-0.2,1-0.2,1.5
	c0,0,1.7,0.4,2,0.5c9.2,2,12.2,4.2,12.7,4.5c-0.2,0.4-0.3,0.9-0.3,1.3c0,1.9,1.5,3.4,3.4,3.4c0.2,0,0.4,0,0.6-0.1
	c0.3,1.4,1.2,2.4,2.6,3c0.4,0.2,0.8,0.2,1.2,0.2c0.3,0,0.5,0,0.8-0.1c0.3,0.6,0.8,1.5,2.1,2c0.5,0.2,0.9,0.3,1.4,0.3
	c0.4,0,0.7-0.1,1-0.2c0.6,1.5,2.1,2.5,3.7,2.5c1.1,0,2.1-0.4,2.9-1.2c0.6,0.4,2,1,3.4,1c0.2,0,0.4,0,0.5,0c1.4-0.2,2-0.7,2.3-1.1
	c0.1-0.1,0.1-0.2,0.1-0.2c0.3,0.1,0.7,0.2,1.1,0.2c0.8,0,1.5-0.3,2.2-0.8s1.2-1.3,1.3-1.9l0,0c0.2,0.1,0.5,0.1,0.7,0.1
	c0.8,0,1.5-0.2,2.3-0.7c1.4-0.9,1.7-2.1,1.6-2.9c0.2,0.1,0.5,0.1,0.7,0.1c0.7,0,1.5-0.2,2.1-0.7c0.9-0.6,1.4-1.4,1.5-2.4
	c0.1-0.7-0.1-1.4-0.5-1.9c2.4-1,7.8-3,14.1-4.4c0-0.5-0.1-1-0.2-1.5C195.6,22.3,189.9,24.8,188.4,25.4 M166.9,37.9
	c-1.5,0-2.7-1.2-2.8-2.6c0-0.1,0-0.5-0.3-0.5c-0.1,0-0.2,0.1-0.3,0.2c-0.3,0.3-0.7,0.6-1.4,0.6c-0.3,0-0.6-0.1-0.9-0.2
	c-1.6-0.6-1.6-1.7-1.5-2.2c0-0.1,0-0.2-0.1-0.3l-0.1-0.1h-0.1c-0.1,0-0.2,0-0.3,0.1c-0.5,0.3-0.9,0.5-1.3,0.5c-0.2,0-0.5,0-0.7-0.1
	c-2.1-0.8-1.9-2.8-1.8-3.4c0-0.1,0-0.2-0.1-0.3l-0.1-0.1l-0.1,0.1c-0.4,0.4-0.9,0.6-1.5,0.6c-1.2,0-2.2-1-2.2-2.2s1-2.2,2.2-2.2
	c1.1,0,2,0.8,2.1,1.9l0.1,0.6l0.3-0.5c0-0.1,0.9-1.4,2.5-1.4c0.3,0,0.6,0,0.9,0.1c1.3,0.4,1.5,1.6,1.5,2c0,0.3,0.2,0.3,0.3,0.3
	c0.1,0,0.2-0.1,0.3-0.1c0.2-0.3,0.8-0.7,1.6-0.7c0.4,0,0.8,0.1,1.2,0.3c2,0.9,1.1,3.5,1.1,3.5c-0.2,0.4-0.2,0.6,0,0.7h0.1h0.1
	c0.1,0,0.2,0,0.4-0.1c0.3-0.1,0.7-0.2,1.1-0.2l0,0c1.5,0,2.8,1.3,2.8,2.8C169.7,36.6,168.4,37.9,166.9,37.9"/>
</svg>
